<mxfile host="Electron" agent="Mozilla/5.0 (X11; Linux x86_64) AppleWebKit/537.36 (KHTML, like Gecko) draw.io/28.1.2 Chrome/138.0.7204.243 Electron/37.4.0 Safari/537.36" version="28.1.2">
  <diagram name="Page-1" id="BEZI4qmmZRfK3UoGMRGf">
    <mxGraphModel dx="969" dy="2144" grid="0" gridSize="10" guides="1" tooltips="1" connect="1" arrows="1" fold="1" page="1" pageScale="1" pageWidth="850" pageHeight="1100" background="none" math="0" shadow="0">
      <root>
        <mxCell id="0" />
        <mxCell id="1" parent="0" />
        <mxCell id="C4oDjcXgk7rpG0gPZD4N-1" value="transfer frame&amp;nbsp;&lt;div&gt;primary header&lt;/div&gt;" style="whiteSpace=wrap;html=1;fillColor=#d5e8d4;strokeColor=#82b366;" vertex="1" parent="1">
          <mxGeometry x="23" y="74" width="120" height="80" as="geometry" />
        </mxCell>
        <mxCell id="C4oDjcXgk7rpG0gPZD4N-2" value="&lt;b&gt;&lt;font face=&quot;Helvetica&quot; style=&quot;font-size: 17px;&quot;&gt;CCSDS Telemetry(TM) Space Data Link Protocol Data Unit&lt;/font&gt;&lt;/b&gt;" style="text;html=1;align=center;verticalAlign=middle;resizable=0;points=[];autosize=1;strokeColor=none;fillColor=none;" vertex="1" parent="1">
          <mxGeometry x="150" y="40" width="490" height="30" as="geometry" />
        </mxCell>
        <mxCell id="C4oDjcXgk7rpG0gPZD4N-3" value="transfer frame&amp;nbsp;&lt;div&gt;secondary header&lt;/div&gt;&lt;div&gt;(optional)&lt;/div&gt;" style="whiteSpace=wrap;html=1;fillColor=#ffe6cc;strokeColor=#d79b00;" vertex="1" parent="1">
          <mxGeometry x="143" y="74" width="120" height="80" as="geometry" />
        </mxCell>
        <mxCell id="C4oDjcXgk7rpG0gPZD4N-4" value="&lt;b&gt;transfer frame data&lt;/b&gt;&lt;div&gt;&lt;b&gt;field&amp;nbsp;&lt;/b&gt;&lt;/div&gt;" style="whiteSpace=wrap;html=1;fillColor=#f8cecc;strokeColor=#b85450;" vertex="1" parent="1">
          <mxGeometry x="263" y="74" width="200" height="80" as="geometry" />
        </mxCell>
        <mxCell id="C4oDjcXgk7rpG0gPZD4N-5" value="operational control&amp;nbsp;&lt;div&gt;field&lt;/div&gt;&lt;div&gt;(optional)&lt;/div&gt;" style="whiteSpace=wrap;html=1;fillColor=#e1d5e7;strokeColor=#9673a6;" vertex="1" parent="1">
          <mxGeometry x="463" y="74" width="120" height="80" as="geometry" />
        </mxCell>
        <mxCell id="C4oDjcXgk7rpG0gPZD4N-79" style="edgeStyle=orthogonalEdgeStyle;rounded=0;orthogonalLoop=1;jettySize=auto;html=1;entryX=1;entryY=0.5;entryDx=0;entryDy=0;strokeWidth=2;dashed=1;" edge="1" parent="1" source="C4oDjcXgk7rpG0gPZD4N-6" target="C4oDjcXgk7rpG0gPZD4N-67">
          <mxGeometry relative="1" as="geometry">
            <Array as="points">
              <mxPoint x="741" y="114" />
              <mxPoint x="741" y="1339" />
            </Array>
          </mxGeometry>
        </mxCell>
        <mxCell id="C4oDjcXgk7rpG0gPZD4N-6" value="frame error&amp;nbsp;&lt;div&gt;control field&amp;nbsp;&lt;/div&gt;&lt;div&gt;(optional)&lt;/div&gt;" style="whiteSpace=wrap;html=1;" vertex="1" parent="1">
          <mxGeometry x="583" y="74" width="120" height="80" as="geometry" />
        </mxCell>
        <mxCell id="C4oDjcXgk7rpG0gPZD4N-7" value="6 bytes" style="text;html=1;align=center;verticalAlign=middle;resizable=0;points=[];autosize=1;strokeColor=none;fillColor=none;" vertex="1" parent="1">
          <mxGeometry x="23" y="154" width="60" height="30" as="geometry" />
        </mxCell>
        <mxCell id="C4oDjcXgk7rpG0gPZD4N-8" value="N bytes" style="text;html=1;align=center;verticalAlign=middle;resizable=0;points=[];autosize=1;strokeColor=none;fillColor=none;" vertex="1" parent="1">
          <mxGeometry x="321" y="154" width="60" height="30" as="geometry" />
        </mxCell>
        <mxCell id="C4oDjcXgk7rpG0gPZD4N-9" value="up to 64&amp;nbsp;&lt;div&gt;bytes&lt;/div&gt;" style="text;html=1;align=center;verticalAlign=middle;resizable=0;points=[];autosize=1;strokeColor=none;fillColor=none;" vertex="1" parent="1">
          <mxGeometry x="143" y="154" width="70" height="40" as="geometry" />
        </mxCell>
        <mxCell id="C4oDjcXgk7rpG0gPZD4N-10" value="4 bytes" style="text;html=1;align=center;verticalAlign=middle;resizable=0;points=[];autosize=1;strokeColor=none;fillColor=none;" vertex="1" parent="1">
          <mxGeometry x="463" y="154" width="60" height="30" as="geometry" />
        </mxCell>
        <mxCell id="C4oDjcXgk7rpG0gPZD4N-11" value="2 bytes" style="text;html=1;align=center;verticalAlign=middle;resizable=0;points=[];autosize=1;strokeColor=none;fillColor=none;" vertex="1" parent="1">
          <mxGeometry x="643" y="154" width="60" height="30" as="geometry" />
        </mxCell>
        <mxCell id="C4oDjcXgk7rpG0gPZD4N-12" value="transfer frame&amp;nbsp;&lt;div&gt;primary header&lt;/div&gt;" style="whiteSpace=wrap;html=1;fillColor=#d5e8d4;strokeColor=#82b366;" vertex="1" parent="1">
          <mxGeometry x="23" y="274" width="510" height="80" as="geometry" />
        </mxCell>
        <mxCell id="C4oDjcXgk7rpG0gPZD4N-13" value="master channel&amp;nbsp;&lt;div&gt;ID&lt;/div&gt;" style="whiteSpace=wrap;html=1;fillColor=#d5e8d4;strokeColor=#82b366;" vertex="1" parent="1">
          <mxGeometry x="23" y="354" width="160" height="70" as="geometry" />
        </mxCell>
        <mxCell id="C4oDjcXgk7rpG0gPZD4N-14" value="10 bits" style="text;html=1;align=center;verticalAlign=middle;resizable=0;points=[];autosize=1;strokeColor=none;fillColor=none;" vertex="1" parent="1">
          <mxGeometry x="113" y="499" width="60" height="30" as="geometry" />
        </mxCell>
        <mxCell id="C4oDjcXgk7rpG0gPZD4N-15" value="spacecraft ID" style="whiteSpace=wrap;html=1;" vertex="1" parent="1">
          <mxGeometry x="103" y="424" width="80" height="70" as="geometry" />
        </mxCell>
        <mxCell id="C4oDjcXgk7rpG0gPZD4N-16" value="2 bits" style="text;html=1;align=center;verticalAlign=middle;resizable=0;points=[];autosize=1;strokeColor=none;fillColor=none;" vertex="1" parent="1">
          <mxGeometry x="38" y="499" width="50" height="30" as="geometry" />
        </mxCell>
        <mxCell id="C4oDjcXgk7rpG0gPZD4N-17" value="transfer&lt;div&gt;&amp;nbsp;frame&lt;div&gt;version number&amp;nbsp;&lt;/div&gt;&lt;/div&gt;" style="whiteSpace=wrap;html=1;" vertex="1" parent="1">
          <mxGeometry x="23" y="424" width="80" height="70" as="geometry" />
        </mxCell>
        <mxCell id="C4oDjcXgk7rpG0gPZD4N-18" value="virtual channel&amp;nbsp;&lt;div&gt;ID&lt;/div&gt;" style="whiteSpace=wrap;html=1;fillColor=#ffe6cc;strokeColor=#d79b00;" vertex="1" parent="1">
          <mxGeometry x="183" y="354" width="70" height="70" as="geometry" />
        </mxCell>
        <mxCell id="C4oDjcXgk7rpG0gPZD4N-19" value="3 bits" style="text;html=1;align=center;verticalAlign=middle;resizable=0;points=[];autosize=1;strokeColor=none;fillColor=none;" vertex="1" parent="1">
          <mxGeometry x="193" y="499" width="50" height="30" as="geometry" />
        </mxCell>
        <mxCell id="C4oDjcXgk7rpG0gPZD4N-20" value="operational&lt;div&gt;control&lt;/div&gt;&lt;div&gt;flag&amp;nbsp;&lt;/div&gt;" style="whiteSpace=wrap;html=1;fillColor=#f8cecc;strokeColor=#b85450;" vertex="1" parent="1">
          <mxGeometry x="253" y="354" width="70" height="70" as="geometry" />
        </mxCell>
        <mxCell id="C4oDjcXgk7rpG0gPZD4N-21" value="1 bit" style="text;html=1;align=center;verticalAlign=middle;resizable=0;points=[];autosize=1;strokeColor=none;fillColor=none;" vertex="1" parent="1">
          <mxGeometry x="263" y="499" width="50" height="30" as="geometry" />
        </mxCell>
        <mxCell id="C4oDjcXgk7rpG0gPZD4N-22" value="master channel&amp;nbsp;&lt;div&gt;frame&amp;nbsp;&lt;/div&gt;&lt;div&gt;count&amp;nbsp;&lt;/div&gt;" style="whiteSpace=wrap;html=1;fillColor=#dae8fc;strokeColor=#6c8ebf;" vertex="1" parent="1">
          <mxGeometry x="323" y="354" width="70" height="70" as="geometry" />
        </mxCell>
        <mxCell id="C4oDjcXgk7rpG0gPZD4N-23" value="8 bits" style="text;html=1;align=center;verticalAlign=middle;resizable=0;points=[];autosize=1;strokeColor=none;fillColor=none;" vertex="1" parent="1">
          <mxGeometry x="333" y="499" width="50" height="30" as="geometry" />
        </mxCell>
        <mxCell id="C4oDjcXgk7rpG0gPZD4N-24" value="virtual channel&amp;nbsp;&lt;div&gt;frame count&amp;nbsp;&lt;/div&gt;" style="whiteSpace=wrap;html=1;fillColor=#fff2cc;strokeColor=#d6b656;" vertex="1" parent="1">
          <mxGeometry x="393" y="354" width="70" height="70" as="geometry" />
        </mxCell>
        <mxCell id="C4oDjcXgk7rpG0gPZD4N-25" value="8 bits" style="text;html=1;align=center;verticalAlign=middle;resizable=0;points=[];autosize=1;strokeColor=none;fillColor=none;" vertex="1" parent="1">
          <mxGeometry x="403" y="499" width="50" height="30" as="geometry" />
        </mxCell>
        <mxCell id="C4oDjcXgk7rpG0gPZD4N-27" value="transfer frame&lt;div&gt;data&amp;nbsp;&lt;/div&gt;&lt;div&gt;field status&amp;nbsp;&lt;/div&gt;&lt;div&gt;&lt;br&gt;&lt;/div&gt;" style="whiteSpace=wrap;html=1;fillColor=#e1d5e7;strokeColor=#9673a6;" vertex="1" parent="1">
          <mxGeometry x="463" y="354" width="70" height="70" as="geometry" />
        </mxCell>
        <mxCell id="C4oDjcXgk7rpG0gPZD4N-28" value="16 bits" style="text;html=1;align=center;verticalAlign=middle;resizable=0;points=[];autosize=1;strokeColor=none;fillColor=none;" vertex="1" parent="1">
          <mxGeometry x="493" y="499" width="60" height="30" as="geometry" />
        </mxCell>
        <mxCell id="C4oDjcXgk7rpG0gPZD4N-29" value="&lt;b&gt;&lt;font face=&quot;Helvetica&quot;&gt;Primary Header&lt;/font&gt;&lt;/b&gt;" style="text;html=1;align=center;verticalAlign=middle;resizable=0;points=[];autosize=1;strokeColor=none;fillColor=none;fontSize=12;" vertex="1" parent="1">
          <mxGeometry x="23" y="244" width="110" height="30" as="geometry" />
        </mxCell>
        <mxCell id="C4oDjcXgk7rpG0gPZD4N-30" value="TFVN" style="text;html=1;align=center;verticalAlign=middle;resizable=0;points=[];autosize=1;strokeColor=none;fillColor=none;" vertex="1" parent="1">
          <mxGeometry x="880" y="80" width="50" height="30" as="geometry" />
        </mxCell>
        <mxCell id="C4oDjcXgk7rpG0gPZD4N-31" value="00" style="text;html=1;align=center;verticalAlign=middle;resizable=0;points=[];autosize=1;strokeColor=none;fillColor=none;" vertex="1" parent="1">
          <mxGeometry x="1000" y="85" width="40" height="30" as="geometry" />
        </mxCell>
        <mxCell id="C4oDjcXgk7rpG0gPZD4N-32" value="Identifies the data unit as&amp;nbsp;&lt;div&gt;a Transfer Frame&lt;/div&gt;" style="text;html=1;align=center;verticalAlign=middle;resizable=0;points=[];autosize=1;strokeColor=none;fillColor=none;" vertex="1" parent="1">
          <mxGeometry x="1080" y="80" width="160" height="40" as="geometry" />
        </mxCell>
        <mxCell id="C4oDjcXgk7rpG0gPZD4N-33" value="&lt;b&gt;LSB&lt;/b&gt;" style="text;html=1;align=center;verticalAlign=middle;resizable=0;points=[];autosize=1;strokeColor=none;fillColor=none;fontStyle=0" vertex="1" parent="1">
          <mxGeometry x="23" y="529" width="50" height="30" as="geometry" />
        </mxCell>
        <mxCell id="C4oDjcXgk7rpG0gPZD4N-34" value="Spacecraft ID" style="text;html=1;align=center;verticalAlign=middle;resizable=0;points=[];autosize=1;strokeColor=none;fillColor=none;" vertex="1" parent="1">
          <mxGeometry x="850" y="128" width="100" height="30" as="geometry" />
        </mxCell>
        <mxCell id="C4oDjcXgk7rpG0gPZD4N-35" value="arbitrary&amp;nbsp;" style="text;html=1;align=center;verticalAlign=middle;resizable=0;points=[];autosize=1;strokeColor=none;fillColor=none;" vertex="1" parent="1">
          <mxGeometry x="1000" y="128" width="70" height="30" as="geometry" />
        </mxCell>
        <mxCell id="C4oDjcXgk7rpG0gPZD4N-36" value="assigned by an authority&amp;nbsp;&lt;div&gt;body&lt;/div&gt;" style="text;html=1;align=center;verticalAlign=middle;resizable=0;points=[];autosize=1;strokeColor=none;fillColor=none;" vertex="1" parent="1">
          <mxGeometry x="1080" y="128" width="160" height="40" as="geometry" />
        </mxCell>
        <mxCell id="C4oDjcXgk7rpG0gPZD4N-37" value="operational control field" style="text;html=1;align=center;verticalAlign=middle;resizable=0;points=[];autosize=1;strokeColor=none;fillColor=none;" vertex="1" parent="1">
          <mxGeometry x="850" y="168" width="150" height="30" as="geometry" />
        </mxCell>
        <mxCell id="C4oDjcXgk7rpG0gPZD4N-38" value="0" style="text;html=1;align=center;verticalAlign=middle;resizable=0;points=[];autosize=1;strokeColor=none;fillColor=none;" vertex="1" parent="1">
          <mxGeometry x="1015" y="168" width="30" height="30" as="geometry" />
        </mxCell>
        <mxCell id="C4oDjcXgk7rpG0gPZD4N-39" value="operational control field not&amp;nbsp;&lt;div&gt;present&lt;/div&gt;" style="text;html=1;align=center;verticalAlign=middle;resizable=0;points=[];autosize=1;strokeColor=none;fillColor=none;" vertex="1" parent="1">
          <mxGeometry x="1075" y="168" width="170" height="40" as="geometry" />
        </mxCell>
        <mxCell id="C4oDjcXgk7rpG0gPZD4N-40" value="transfer frame secondary&amp;nbsp;&lt;div&gt;header status&lt;/div&gt;" style="whiteSpace=wrap;html=1;fillColor=#e1d5e7;strokeColor=#9673a6;" vertex="1" parent="1">
          <mxGeometry x="23" y="590" width="400" height="70" as="geometry" />
        </mxCell>
        <mxCell id="C4oDjcXgk7rpG0gPZD4N-41" value="&lt;b&gt;Transfer Frame Data Field Status&amp;nbsp;&lt;/b&gt;" style="text;html=1;align=center;verticalAlign=middle;resizable=0;points=[];autosize=1;strokeColor=none;fillColor=none;fontSize=12;" vertex="1" parent="1">
          <mxGeometry x="23" y="564" width="209" height="26" as="geometry" />
        </mxCell>
        <mxCell id="C4oDjcXgk7rpG0gPZD4N-42" value="transfer&lt;div&gt;frame secondary&amp;nbsp;&lt;/div&gt;&lt;div&gt;header flag&lt;/div&gt;" style="whiteSpace=wrap;html=1;fillColor=#f8cecc;strokeColor=#b85450;" vertex="1" parent="1">
          <mxGeometry x="23" y="660" width="80" height="70" as="geometry" />
        </mxCell>
        <mxCell id="C4oDjcXgk7rpG0gPZD4N-43" value="synch.&amp;nbsp;&lt;div&gt;flag&lt;/div&gt;" style="whiteSpace=wrap;html=1;" vertex="1" parent="1">
          <mxGeometry x="103" y="660" width="80" height="70" as="geometry" />
        </mxCell>
        <mxCell id="C4oDjcXgk7rpG0gPZD4N-44" value="packet order&lt;div&gt;flag&lt;/div&gt;" style="whiteSpace=wrap;html=1;fillColor=#ffe6cc;strokeColor=#d79b00;" vertex="1" parent="1">
          <mxGeometry x="183" y="660" width="80" height="70" as="geometry" />
        </mxCell>
        <mxCell id="C4oDjcXgk7rpG0gPZD4N-45" value="segment&amp;nbsp;&lt;div&gt;length&amp;nbsp;&lt;/div&gt;&lt;div&gt;ID&lt;/div&gt;" style="whiteSpace=wrap;html=1;" vertex="1" parent="1">
          <mxGeometry x="263" y="660" width="80" height="70" as="geometry" />
        </mxCell>
        <mxCell id="C4oDjcXgk7rpG0gPZD4N-46" value="first&amp;nbsp;&lt;div&gt;header&amp;nbsp;&lt;/div&gt;&lt;div&gt;pointer&lt;/div&gt;" style="whiteSpace=wrap;html=1;fillColor=#d5e8d4;strokeColor=#82b366;" vertex="1" parent="1">
          <mxGeometry x="343" y="660" width="80" height="70" as="geometry" />
        </mxCell>
        <mxCell id="C4oDjcXgk7rpG0gPZD4N-47" value="1 bit" style="text;html=1;align=center;verticalAlign=middle;resizable=0;points=[];autosize=1;strokeColor=none;fillColor=none;" vertex="1" parent="1">
          <mxGeometry x="23" y="730" width="50" height="30" as="geometry" />
        </mxCell>
        <mxCell id="C4oDjcXgk7rpG0gPZD4N-48" value="1 bit" style="text;html=1;align=center;verticalAlign=middle;resizable=0;points=[];autosize=1;strokeColor=none;fillColor=none;" vertex="1" parent="1">
          <mxGeometry x="102.5" y="730" width="50" height="30" as="geometry" />
        </mxCell>
        <mxCell id="C4oDjcXgk7rpG0gPZD4N-49" value="1 bit" style="text;html=1;align=center;verticalAlign=middle;resizable=0;points=[];autosize=1;strokeColor=none;fillColor=none;" vertex="1" parent="1">
          <mxGeometry x="182" y="730" width="50" height="30" as="geometry" />
        </mxCell>
        <mxCell id="C4oDjcXgk7rpG0gPZD4N-50" value="2 bit" style="text;html=1;align=center;verticalAlign=middle;resizable=0;points=[];autosize=1;strokeColor=none;fillColor=none;" vertex="1" parent="1">
          <mxGeometry x="263" y="730" width="50" height="30" as="geometry" />
        </mxCell>
        <mxCell id="C4oDjcXgk7rpG0gPZD4N-51" value="11 bit" style="text;html=1;align=center;verticalAlign=middle;resizable=0;points=[];autosize=1;strokeColor=none;fillColor=none;" vertex="1" parent="1">
          <mxGeometry x="343" y="730" width="50" height="30" as="geometry" />
        </mxCell>
        <mxCell id="C4oDjcXgk7rpG0gPZD4N-52" value="&lt;b&gt;LSB&lt;/b&gt;" style="text;html=1;align=center;verticalAlign=middle;resizable=0;points=[];autosize=1;strokeColor=none;fillColor=none;fontStyle=0" vertex="1" parent="1">
          <mxGeometry x="23" y="760" width="50" height="30" as="geometry" />
        </mxCell>
        <mxCell id="C4oDjcXgk7rpG0gPZD4N-53" value="&lt;b&gt;LSB&lt;/b&gt;" style="text;html=1;align=center;verticalAlign=middle;resizable=0;points=[];autosize=1;strokeColor=none;fillColor=none;fontStyle=0" vertex="1" parent="1">
          <mxGeometry x="23" y="192" width="50" height="30" as="geometry" />
        </mxCell>
        <mxCell id="C4oDjcXgk7rpG0gPZD4N-54" value="&lt;b&gt;Transfer Frame Secondary Header&lt;/b&gt;" style="text;html=1;align=center;verticalAlign=middle;resizable=0;points=[];autosize=1;strokeColor=none;fillColor=none;fontSize=12;" vertex="1" parent="1">
          <mxGeometry x="23" y="799" width="213" height="26" as="geometry" />
        </mxCell>
        <mxCell id="C4oDjcXgk7rpG0gPZD4N-55" value="Transfer frame secondary header" style="whiteSpace=wrap;html=1;fillColor=#ffe6cc;strokeColor=#d79b00;" vertex="1" parent="1">
          <mxGeometry x="23" y="825" width="400" height="70" as="geometry" />
        </mxCell>
        <mxCell id="C4oDjcXgk7rpG0gPZD4N-56" value="transfer&lt;div&gt;frame secondary&amp;nbsp;&lt;/div&gt;&lt;div&gt;header ID&lt;/div&gt;" style="whiteSpace=wrap;html=1;fillColor=#f8cecc;strokeColor=#b85450;" vertex="1" parent="1">
          <mxGeometry x="23" y="895" width="215" height="70" as="geometry" />
        </mxCell>
        <mxCell id="C4oDjcXgk7rpG0gPZD4N-58" value="transfer&amp;nbsp;&lt;div&gt;frame&lt;/div&gt;&lt;div&gt;secondary header version number&lt;/div&gt;" style="whiteSpace=wrap;html=1;" vertex="1" parent="1">
          <mxGeometry x="23" y="965" width="108" height="70" as="geometry" />
        </mxCell>
        <mxCell id="C4oDjcXgk7rpG0gPZD4N-59" value="synch.&amp;nbsp;&lt;div&gt;flag&lt;/div&gt;" style="whiteSpace=wrap;html=1;" vertex="1" parent="1">
          <mxGeometry x="131" y="965" width="107" height="70" as="geometry" />
        </mxCell>
        <mxCell id="C4oDjcXgk7rpG0gPZD4N-61" value="2 bit" style="text;html=1;align=center;verticalAlign=middle;resizable=0;points=[];autosize=1;strokeColor=none;fillColor=none;" vertex="1" parent="1">
          <mxGeometry x="28" y="1037" width="41" height="26" as="geometry" />
        </mxCell>
        <mxCell id="C4oDjcXgk7rpG0gPZD4N-62" value="6 bit" style="text;html=1;align=center;verticalAlign=middle;resizable=0;points=[];autosize=1;strokeColor=none;fillColor=none;" vertex="1" parent="1">
          <mxGeometry x="136" y="1037" width="41" height="26" as="geometry" />
        </mxCell>
        <mxCell id="C4oDjcXgk7rpG0gPZD4N-63" value="transfer&lt;div&gt;frame secondary&amp;nbsp;&lt;/div&gt;&lt;div&gt;header ID&lt;/div&gt;" style="whiteSpace=wrap;html=1;fillColor=#fff2cc;strokeColor=#d6b656;" vertex="1" parent="1">
          <mxGeometry x="238" y="895" width="184" height="69" as="geometry" />
        </mxCell>
        <mxCell id="C4oDjcXgk7rpG0gPZD4N-64" value="up to 64 bytes" style="text;html=1;align=center;verticalAlign=middle;resizable=0;points=[];autosize=1;strokeColor=none;fillColor=none;" vertex="1" parent="1">
          <mxGeometry x="240" y="1035" width="93" height="26" as="geometry" />
        </mxCell>
        <mxCell id="C4oDjcXgk7rpG0gPZD4N-65" value="CRC LOW" style="whiteSpace=wrap;html=1;fillColor=#f8cecc;strokeColor=#b85450;" vertex="1" parent="1">
          <mxGeometry x="32" y="1309" width="122.5" height="60" as="geometry" />
        </mxCell>
        <mxCell id="C4oDjcXgk7rpG0gPZD4N-66" value="&lt;b&gt;Frame Error Control Field&lt;/b&gt;" style="text;html=1;align=center;verticalAlign=middle;resizable=0;points=[];autosize=1;strokeColor=none;fillColor=none;fontSize=12;" vertex="1" parent="1">
          <mxGeometry x="32" y="1283" width="164" height="26" as="geometry" />
        </mxCell>
        <mxCell id="C4oDjcXgk7rpG0gPZD4N-67" value="CRC HIGH" style="whiteSpace=wrap;html=1;" vertex="1" parent="1">
          <mxGeometry x="154.5" y="1309" width="122.5" height="60" as="geometry" />
        </mxCell>
        <mxCell id="C4oDjcXgk7rpG0gPZD4N-68" value="8 bit" style="text;html=1;align=center;verticalAlign=middle;resizable=0;points=[];autosize=1;strokeColor=none;fillColor=none;" vertex="1" parent="1">
          <mxGeometry x="32" y="1369" width="41" height="26" as="geometry" />
        </mxCell>
        <mxCell id="C4oDjcXgk7rpG0gPZD4N-69" value="8 bit" style="text;html=1;align=center;verticalAlign=middle;resizable=0;points=[];autosize=1;strokeColor=none;fillColor=none;" vertex="1" parent="1">
          <mxGeometry x="154" y="1369" width="41" height="26" as="geometry" />
        </mxCell>
        <mxCell id="C4oDjcXgk7rpG0gPZD4N-70" value="NOT PRESENT" style="whiteSpace=wrap;html=1;fillColor=#dae8fc;strokeColor=#6c8ebf;" vertex="1" parent="1">
          <mxGeometry x="34" y="1172" width="246" height="60" as="geometry" />
        </mxCell>
        <mxCell id="C4oDjcXgk7rpG0gPZD4N-71" value="&lt;b&gt;Operational control Field&lt;/b&gt;" style="text;html=1;align=center;verticalAlign=middle;resizable=0;points=[];autosize=1;strokeColor=none;fillColor=none;fontSize=12;" vertex="1" parent="1">
          <mxGeometry x="36" y="1146" width="160" height="26" as="geometry" />
        </mxCell>
        <mxCell id="C4oDjcXgk7rpG0gPZD4N-75" value="" style="edgeStyle=none;orthogonalLoop=1;jettySize=auto;html=1;rounded=0;exitX=0.64;exitY=1.013;exitDx=0;exitDy=0;exitPerimeter=0;entryX=0.373;entryY=0.013;entryDx=0;entryDy=0;entryPerimeter=0;dashed=1;strokeWidth=2;" edge="1" parent="1" source="C4oDjcXgk7rpG0gPZD4N-1" target="C4oDjcXgk7rpG0gPZD4N-12">
          <mxGeometry width="100" relative="1" as="geometry">
            <mxPoint x="639" y="362" as="sourcePoint" />
            <mxPoint x="739" y="362" as="targetPoint" />
            <Array as="points">
              <mxPoint x="100" y="211" />
              <mxPoint x="213" y="211" />
            </Array>
          </mxGeometry>
        </mxCell>
        <mxCell id="C4oDjcXgk7rpG0gPZD4N-76" value="" style="edgeStyle=none;orthogonalLoop=1;jettySize=auto;html=1;rounded=0;exitX=0.5;exitY=1;exitDx=0;exitDy=0;entryX=1;entryY=0.5;entryDx=0;entryDy=0;dashed=1;strokeWidth=2;" edge="1" parent="1" source="C4oDjcXgk7rpG0gPZD4N-27" target="C4oDjcXgk7rpG0gPZD4N-40">
          <mxGeometry width="100" relative="1" as="geometry">
            <mxPoint x="523" y="230" as="sourcePoint" />
            <mxPoint x="623" y="230" as="targetPoint" />
            <Array as="points">
              <mxPoint x="498" y="625" />
            </Array>
          </mxGeometry>
        </mxCell>
        <mxCell id="C4oDjcXgk7rpG0gPZD4N-77" value="" style="edgeStyle=none;orthogonalLoop=1;jettySize=auto;html=1;rounded=0;exitX=0.962;exitY=0.078;exitDx=0;exitDy=0;exitPerimeter=0;entryX=1;entryY=0.5;entryDx=0;entryDy=0;dashed=1;strokeWidth=2;" edge="1" parent="1" source="C4oDjcXgk7rpG0gPZD4N-9" target="C4oDjcXgk7rpG0gPZD4N-55">
          <mxGeometry width="100" relative="1" as="geometry">
            <mxPoint x="535" y="238" as="sourcePoint" />
            <mxPoint x="635" y="238" as="targetPoint" />
            <Array as="points">
              <mxPoint x="210" y="194" />
              <mxPoint x="620" y="194" />
              <mxPoint x="620" y="860" />
            </Array>
          </mxGeometry>
        </mxCell>
        <mxCell id="C4oDjcXgk7rpG0gPZD4N-78" value="" style="edgeStyle=none;orthogonalLoop=1;jettySize=auto;html=1;rounded=0;exitX=0.5;exitY=1;exitDx=0;exitDy=0;entryX=1;entryY=0.5;entryDx=0;entryDy=0;dashed=1;strokeWidth=2;" edge="1" parent="1" source="C4oDjcXgk7rpG0gPZD4N-5" target="C4oDjcXgk7rpG0gPZD4N-70">
          <mxGeometry width="100" relative="1" as="geometry">
            <mxPoint x="685" y="402" as="sourcePoint" />
            <mxPoint x="785" y="402" as="targetPoint" />
            <Array as="points">
              <mxPoint x="523" y="176" />
              <mxPoint x="658" y="176" />
              <mxPoint x="658" y="1202" />
            </Array>
          </mxGeometry>
        </mxCell>
      </root>
    </mxGraphModel>
  </diagram>
</mxfile>
